<mxfile host="app.diagrams.net" modified="2021-05-24T17:52:20.195Z" agent="5.0 (Windows NT 10.0; Win64; x64) AppleWebKit/537.36 (KHTML, like Gecko) Chrome/90.0.4430.212 Safari/537.36" etag="ihRWM8eXrMTYCcNzgFK3" version="14.6.13" type="github">
  <diagram id="C5RBs43oDa-KdzZeNtuy" name="Page-1">
    <mxGraphModel dx="1038" dy="548" grid="1" gridSize="10" guides="1" tooltips="1" connect="1" arrows="1" fold="1" page="1" pageScale="1" pageWidth="827" pageHeight="1169" math="0" shadow="0">
      <root>
        <mxCell id="WIyWlLk6GJQsqaUBKTNV-0" />
        <mxCell id="WIyWlLk6GJQsqaUBKTNV-1" parent="WIyWlLk6GJQsqaUBKTNV-0" />
        <mxCell id="G43QjwHWIyFw_iOJCY6j-101" value="Usuario" style="shape=table;startSize=30;container=1;collapsible=1;childLayout=tableLayout;fixedRows=1;rowLines=0;fontStyle=1;align=center;resizeLast=1;" vertex="1" parent="WIyWlLk6GJQsqaUBKTNV-1">
          <mxGeometry x="90" y="120" width="180" height="250" as="geometry" />
        </mxCell>
        <mxCell id="G43QjwHWIyFw_iOJCY6j-102" value="" style="shape=partialRectangle;collapsible=0;dropTarget=0;pointerEvents=0;fillColor=none;top=0;left=0;bottom=1;right=0;points=[[0,0.5],[1,0.5]];portConstraint=eastwest;" vertex="1" parent="G43QjwHWIyFw_iOJCY6j-101">
          <mxGeometry y="30" width="180" height="30" as="geometry" />
        </mxCell>
        <mxCell id="G43QjwHWIyFw_iOJCY6j-103" value="PK" style="shape=partialRectangle;connectable=0;fillColor=none;top=0;left=0;bottom=0;right=0;fontStyle=1;overflow=hidden;" vertex="1" parent="G43QjwHWIyFw_iOJCY6j-102">
          <mxGeometry width="30" height="30" as="geometry" />
        </mxCell>
        <mxCell id="G43QjwHWIyFw_iOJCY6j-104" value="dni" style="shape=partialRectangle;connectable=0;fillColor=none;top=0;left=0;bottom=0;right=0;align=left;spacingLeft=6;fontStyle=5;overflow=hidden;" vertex="1" parent="G43QjwHWIyFw_iOJCY6j-102">
          <mxGeometry x="30" width="150" height="30" as="geometry" />
        </mxCell>
        <mxCell id="G43QjwHWIyFw_iOJCY6j-105" value="" style="shape=partialRectangle;collapsible=0;dropTarget=0;pointerEvents=0;fillColor=none;top=0;left=0;bottom=0;right=0;points=[[0,0.5],[1,0.5]];portConstraint=eastwest;" vertex="1" parent="G43QjwHWIyFw_iOJCY6j-101">
          <mxGeometry y="60" width="180" height="30" as="geometry" />
        </mxCell>
        <mxCell id="G43QjwHWIyFw_iOJCY6j-106" value="" style="shape=partialRectangle;connectable=0;fillColor=none;top=0;left=0;bottom=0;right=0;editable=1;overflow=hidden;" vertex="1" parent="G43QjwHWIyFw_iOJCY6j-105">
          <mxGeometry width="30" height="30" as="geometry" />
        </mxCell>
        <mxCell id="G43QjwHWIyFw_iOJCY6j-107" value="nombre" style="shape=partialRectangle;connectable=0;fillColor=none;top=0;left=0;bottom=0;right=0;align=left;spacingLeft=6;overflow=hidden;" vertex="1" parent="G43QjwHWIyFw_iOJCY6j-105">
          <mxGeometry x="30" width="150" height="30" as="geometry" />
        </mxCell>
        <mxCell id="G43QjwHWIyFw_iOJCY6j-108" value="" style="shape=partialRectangle;collapsible=0;dropTarget=0;pointerEvents=0;fillColor=none;top=0;left=0;bottom=0;right=0;points=[[0,0.5],[1,0.5]];portConstraint=eastwest;" vertex="1" parent="G43QjwHWIyFw_iOJCY6j-101">
          <mxGeometry y="90" width="180" height="30" as="geometry" />
        </mxCell>
        <mxCell id="G43QjwHWIyFw_iOJCY6j-109" value="" style="shape=partialRectangle;connectable=0;fillColor=none;top=0;left=0;bottom=0;right=0;editable=1;overflow=hidden;" vertex="1" parent="G43QjwHWIyFw_iOJCY6j-108">
          <mxGeometry width="30" height="30" as="geometry" />
        </mxCell>
        <mxCell id="G43QjwHWIyFw_iOJCY6j-110" value="apellidos" style="shape=partialRectangle;connectable=0;fillColor=none;top=0;left=0;bottom=0;right=0;align=left;spacingLeft=6;overflow=hidden;" vertex="1" parent="G43QjwHWIyFw_iOJCY6j-108">
          <mxGeometry x="30" width="150" height="30" as="geometry" />
        </mxCell>
        <mxCell id="G43QjwHWIyFw_iOJCY6j-111" value="" style="shape=partialRectangle;collapsible=0;dropTarget=0;pointerEvents=0;fillColor=none;top=0;left=0;bottom=0;right=0;points=[[0,0.5],[1,0.5]];portConstraint=eastwest;" vertex="1" parent="G43QjwHWIyFw_iOJCY6j-101">
          <mxGeometry y="120" width="180" height="30" as="geometry" />
        </mxCell>
        <mxCell id="G43QjwHWIyFw_iOJCY6j-112" value="" style="shape=partialRectangle;connectable=0;fillColor=none;top=0;left=0;bottom=0;right=0;editable=1;overflow=hidden;" vertex="1" parent="G43QjwHWIyFw_iOJCY6j-111">
          <mxGeometry width="30" height="30" as="geometry" />
        </mxCell>
        <mxCell id="G43QjwHWIyFw_iOJCY6j-113" value="direccion" style="shape=partialRectangle;connectable=0;fillColor=none;top=0;left=0;bottom=0;right=0;align=left;spacingLeft=6;overflow=hidden;" vertex="1" parent="G43QjwHWIyFw_iOJCY6j-111">
          <mxGeometry x="30" width="150" height="30" as="geometry" />
        </mxCell>
        <mxCell id="G43QjwHWIyFw_iOJCY6j-114" value="telefono" style="shape=partialRectangle;connectable=0;fillColor=none;top=0;left=0;bottom=0;right=0;align=left;spacingLeft=6;overflow=hidden;" vertex="1" parent="WIyWlLk6GJQsqaUBKTNV-1">
          <mxGeometry x="120" y="270" width="150" height="30" as="geometry" />
        </mxCell>
        <mxCell id="G43QjwHWIyFw_iOJCY6j-115" value="email" style="shape=partialRectangle;connectable=0;fillColor=none;top=0;left=0;bottom=0;right=0;align=left;spacingLeft=6;overflow=hidden;" vertex="1" parent="WIyWlLk6GJQsqaUBKTNV-1">
          <mxGeometry x="120" y="300" width="150" height="30" as="geometry" />
        </mxCell>
        <mxCell id="G43QjwHWIyFw_iOJCY6j-116" value="tipo" style="shape=partialRectangle;connectable=0;fillColor=none;top=0;left=0;bottom=0;right=0;align=left;spacingLeft=6;overflow=hidden;" vertex="1" parent="WIyWlLk6GJQsqaUBKTNV-1">
          <mxGeometry x="120" y="330" width="150" height="30" as="geometry" />
        </mxCell>
        <mxCell id="G43QjwHWIyFw_iOJCY6j-153" value="Alimento" style="shape=table;startSize=30;container=1;collapsible=1;childLayout=tableLayout;fixedRows=1;rowLines=0;fontStyle=1;align=center;resizeLast=1;" vertex="1" parent="WIyWlLk6GJQsqaUBKTNV-1">
          <mxGeometry x="400" y="1280" width="180" height="250" as="geometry" />
        </mxCell>
        <mxCell id="G43QjwHWIyFw_iOJCY6j-154" value="" style="shape=partialRectangle;collapsible=0;dropTarget=0;pointerEvents=0;fillColor=none;top=0;left=0;bottom=1;right=0;points=[[0,0.5],[1,0.5]];portConstraint=eastwest;" vertex="1" parent="G43QjwHWIyFw_iOJCY6j-153">
          <mxGeometry y="30" width="180" height="30" as="geometry" />
        </mxCell>
        <mxCell id="G43QjwHWIyFw_iOJCY6j-155" value="PK" style="shape=partialRectangle;connectable=0;fillColor=none;top=0;left=0;bottom=0;right=0;fontStyle=1;overflow=hidden;" vertex="1" parent="G43QjwHWIyFw_iOJCY6j-154">
          <mxGeometry width="30" height="30" as="geometry" />
        </mxCell>
        <mxCell id="G43QjwHWIyFw_iOJCY6j-156" value="id" style="shape=partialRectangle;connectable=0;fillColor=none;top=0;left=0;bottom=0;right=0;align=left;spacingLeft=6;fontStyle=5;overflow=hidden;" vertex="1" parent="G43QjwHWIyFw_iOJCY6j-154">
          <mxGeometry x="30" width="150" height="30" as="geometry" />
        </mxCell>
        <mxCell id="G43QjwHWIyFw_iOJCY6j-157" value="" style="shape=partialRectangle;collapsible=0;dropTarget=0;pointerEvents=0;fillColor=none;top=0;left=0;bottom=0;right=0;points=[[0,0.5],[1,0.5]];portConstraint=eastwest;" vertex="1" parent="G43QjwHWIyFw_iOJCY6j-153">
          <mxGeometry y="60" width="180" height="30" as="geometry" />
        </mxCell>
        <mxCell id="G43QjwHWIyFw_iOJCY6j-158" value="" style="shape=partialRectangle;connectable=0;fillColor=none;top=0;left=0;bottom=0;right=0;editable=1;overflow=hidden;" vertex="1" parent="G43QjwHWIyFw_iOJCY6j-157">
          <mxGeometry width="30" height="30" as="geometry" />
        </mxCell>
        <mxCell id="G43QjwHWIyFw_iOJCY6j-159" value="bien" style="shape=partialRectangle;connectable=0;fillColor=none;top=0;left=0;bottom=0;right=0;align=left;spacingLeft=6;overflow=hidden;" vertex="1" parent="G43QjwHWIyFw_iOJCY6j-157">
          <mxGeometry x="30" width="150" height="30" as="geometry" />
        </mxCell>
        <mxCell id="G43QjwHWIyFw_iOJCY6j-160" value="" style="shape=partialRectangle;collapsible=0;dropTarget=0;pointerEvents=0;fillColor=none;top=0;left=0;bottom=0;right=0;points=[[0,0.5],[1,0.5]];portConstraint=eastwest;" vertex="1" parent="G43QjwHWIyFw_iOJCY6j-153">
          <mxGeometry y="90" width="180" height="30" as="geometry" />
        </mxCell>
        <mxCell id="G43QjwHWIyFw_iOJCY6j-161" value="" style="shape=partialRectangle;connectable=0;fillColor=none;top=0;left=0;bottom=0;right=0;editable=1;overflow=hidden;" vertex="1" parent="G43QjwHWIyFw_iOJCY6j-160">
          <mxGeometry width="30" height="30" as="geometry" />
        </mxCell>
        <mxCell id="G43QjwHWIyFw_iOJCY6j-162" value="mal" style="shape=partialRectangle;connectable=0;fillColor=none;top=0;left=0;bottom=0;right=0;align=left;spacingLeft=6;overflow=hidden;" vertex="1" parent="G43QjwHWIyFw_iOJCY6j-160">
          <mxGeometry x="30" width="150" height="30" as="geometry" />
        </mxCell>
        <mxCell id="G43QjwHWIyFw_iOJCY6j-163" value="" style="shape=partialRectangle;collapsible=0;dropTarget=0;pointerEvents=0;fillColor=none;top=0;left=0;bottom=0;right=0;points=[[0,0.5],[1,0.5]];portConstraint=eastwest;" vertex="1" parent="G43QjwHWIyFw_iOJCY6j-153">
          <mxGeometry y="120" width="180" height="30" as="geometry" />
        </mxCell>
        <mxCell id="G43QjwHWIyFw_iOJCY6j-164" value="" style="shape=partialRectangle;connectable=0;fillColor=none;top=0;left=0;bottom=0;right=0;editable=1;overflow=hidden;" vertex="1" parent="G43QjwHWIyFw_iOJCY6j-163">
          <mxGeometry width="30" height="30" as="geometry" />
        </mxCell>
        <mxCell id="G43QjwHWIyFw_iOJCY6j-165" value="alumno" style="shape=partialRectangle;connectable=0;fillColor=none;top=0;left=0;bottom=0;right=0;align=left;spacingLeft=6;overflow=hidden;" vertex="1" parent="G43QjwHWIyFw_iOJCY6j-163">
          <mxGeometry x="30" width="150" height="30" as="geometry" />
        </mxCell>
        <mxCell id="G43QjwHWIyFw_iOJCY6j-166" value="Administrador" style="shape=table;startSize=30;container=1;collapsible=1;childLayout=tableLayout;fixedRows=1;rowLines=0;fontStyle=1;align=center;resizeLast=1;" vertex="1" parent="WIyWlLk6GJQsqaUBKTNV-1">
          <mxGeometry x="90" y="520" width="180" height="250" as="geometry" />
        </mxCell>
        <mxCell id="G43QjwHWIyFw_iOJCY6j-167" value="" style="shape=partialRectangle;collapsible=0;dropTarget=0;pointerEvents=0;fillColor=none;top=0;left=0;bottom=1;right=0;points=[[0,0.5],[1,0.5]];portConstraint=eastwest;" vertex="1" parent="G43QjwHWIyFw_iOJCY6j-166">
          <mxGeometry y="30" width="180" height="30" as="geometry" />
        </mxCell>
        <mxCell id="G43QjwHWIyFw_iOJCY6j-168" value="PK" style="shape=partialRectangle;connectable=0;fillColor=none;top=0;left=0;bottom=0;right=0;fontStyle=1;overflow=hidden;" vertex="1" parent="G43QjwHWIyFw_iOJCY6j-167">
          <mxGeometry width="30" height="30" as="geometry" />
        </mxCell>
        <mxCell id="G43QjwHWIyFw_iOJCY6j-169" value="dni" style="shape=partialRectangle;connectable=0;fillColor=none;top=0;left=0;bottom=0;right=0;align=left;spacingLeft=6;fontStyle=5;overflow=hidden;" vertex="1" parent="G43QjwHWIyFw_iOJCY6j-167">
          <mxGeometry x="30" width="150" height="30" as="geometry" />
        </mxCell>
        <mxCell id="G43QjwHWIyFw_iOJCY6j-170" value="" style="shape=partialRectangle;collapsible=0;dropTarget=0;pointerEvents=0;fillColor=none;top=0;left=0;bottom=0;right=0;points=[[0,0.5],[1,0.5]];portConstraint=eastwest;" vertex="1" parent="G43QjwHWIyFw_iOJCY6j-166">
          <mxGeometry y="60" width="180" height="30" as="geometry" />
        </mxCell>
        <mxCell id="G43QjwHWIyFw_iOJCY6j-171" value="" style="shape=partialRectangle;connectable=0;fillColor=none;top=0;left=0;bottom=0;right=0;editable=1;overflow=hidden;" vertex="1" parent="G43QjwHWIyFw_iOJCY6j-170">
          <mxGeometry width="30" height="30" as="geometry" />
        </mxCell>
        <mxCell id="G43QjwHWIyFw_iOJCY6j-172" value="nombre" style="shape=partialRectangle;connectable=0;fillColor=none;top=0;left=0;bottom=0;right=0;align=left;spacingLeft=6;overflow=hidden;" vertex="1" parent="G43QjwHWIyFw_iOJCY6j-170">
          <mxGeometry x="30" width="150" height="30" as="geometry" />
        </mxCell>
        <mxCell id="G43QjwHWIyFw_iOJCY6j-173" value="" style="shape=partialRectangle;collapsible=0;dropTarget=0;pointerEvents=0;fillColor=none;top=0;left=0;bottom=0;right=0;points=[[0,0.5],[1,0.5]];portConstraint=eastwest;" vertex="1" parent="G43QjwHWIyFw_iOJCY6j-166">
          <mxGeometry y="90" width="180" height="30" as="geometry" />
        </mxCell>
        <mxCell id="G43QjwHWIyFw_iOJCY6j-174" value="" style="shape=partialRectangle;connectable=0;fillColor=none;top=0;left=0;bottom=0;right=0;editable=1;overflow=hidden;" vertex="1" parent="G43QjwHWIyFw_iOJCY6j-173">
          <mxGeometry width="30" height="30" as="geometry" />
        </mxCell>
        <mxCell id="G43QjwHWIyFw_iOJCY6j-175" value="apellidos" style="shape=partialRectangle;connectable=0;fillColor=none;top=0;left=0;bottom=0;right=0;align=left;spacingLeft=6;overflow=hidden;" vertex="1" parent="G43QjwHWIyFw_iOJCY6j-173">
          <mxGeometry x="30" width="150" height="30" as="geometry" />
        </mxCell>
        <mxCell id="G43QjwHWIyFw_iOJCY6j-176" value="" style="shape=partialRectangle;collapsible=0;dropTarget=0;pointerEvents=0;fillColor=none;top=0;left=0;bottom=0;right=0;points=[[0,0.5],[1,0.5]];portConstraint=eastwest;" vertex="1" parent="G43QjwHWIyFw_iOJCY6j-166">
          <mxGeometry y="120" width="180" height="30" as="geometry" />
        </mxCell>
        <mxCell id="G43QjwHWIyFw_iOJCY6j-177" value="" style="shape=partialRectangle;connectable=0;fillColor=none;top=0;left=0;bottom=0;right=0;editable=1;overflow=hidden;" vertex="1" parent="G43QjwHWIyFw_iOJCY6j-176">
          <mxGeometry width="30" height="30" as="geometry" />
        </mxCell>
        <mxCell id="G43QjwHWIyFw_iOJCY6j-178" value="direccion" style="shape=partialRectangle;connectable=0;fillColor=none;top=0;left=0;bottom=0;right=0;align=left;spacingLeft=6;overflow=hidden;" vertex="1" parent="G43QjwHWIyFw_iOJCY6j-176">
          <mxGeometry x="30" width="150" height="30" as="geometry" />
        </mxCell>
        <mxCell id="G43QjwHWIyFw_iOJCY6j-179" value="Maestro" style="shape=table;startSize=30;container=1;collapsible=1;childLayout=tableLayout;fixedRows=1;rowLines=0;fontStyle=1;align=center;resizeLast=1;" vertex="1" parent="WIyWlLk6GJQsqaUBKTNV-1">
          <mxGeometry x="390" y="520" width="180" height="250" as="geometry" />
        </mxCell>
        <mxCell id="G43QjwHWIyFw_iOJCY6j-180" value="" style="shape=partialRectangle;collapsible=0;dropTarget=0;pointerEvents=0;fillColor=none;top=0;left=0;bottom=1;right=0;points=[[0,0.5],[1,0.5]];portConstraint=eastwest;" vertex="1" parent="G43QjwHWIyFw_iOJCY6j-179">
          <mxGeometry y="30" width="180" height="30" as="geometry" />
        </mxCell>
        <mxCell id="G43QjwHWIyFw_iOJCY6j-181" value="PK" style="shape=partialRectangle;connectable=0;fillColor=none;top=0;left=0;bottom=0;right=0;fontStyle=1;overflow=hidden;" vertex="1" parent="G43QjwHWIyFw_iOJCY6j-180">
          <mxGeometry width="30" height="30" as="geometry" />
        </mxCell>
        <mxCell id="G43QjwHWIyFw_iOJCY6j-182" value="dni" style="shape=partialRectangle;connectable=0;fillColor=none;top=0;left=0;bottom=0;right=0;align=left;spacingLeft=6;fontStyle=5;overflow=hidden;" vertex="1" parent="G43QjwHWIyFw_iOJCY6j-180">
          <mxGeometry x="30" width="150" height="30" as="geometry" />
        </mxCell>
        <mxCell id="G43QjwHWIyFw_iOJCY6j-183" value="" style="shape=partialRectangle;collapsible=0;dropTarget=0;pointerEvents=0;fillColor=none;top=0;left=0;bottom=0;right=0;points=[[0,0.5],[1,0.5]];portConstraint=eastwest;" vertex="1" parent="G43QjwHWIyFw_iOJCY6j-179">
          <mxGeometry y="60" width="180" height="30" as="geometry" />
        </mxCell>
        <mxCell id="G43QjwHWIyFw_iOJCY6j-184" value="" style="shape=partialRectangle;connectable=0;fillColor=none;top=0;left=0;bottom=0;right=0;editable=1;overflow=hidden;" vertex="1" parent="G43QjwHWIyFw_iOJCY6j-183">
          <mxGeometry width="30" height="30" as="geometry" />
        </mxCell>
        <mxCell id="G43QjwHWIyFw_iOJCY6j-185" value="nombre" style="shape=partialRectangle;connectable=0;fillColor=none;top=0;left=0;bottom=0;right=0;align=left;spacingLeft=6;overflow=hidden;" vertex="1" parent="G43QjwHWIyFw_iOJCY6j-183">
          <mxGeometry x="30" width="150" height="30" as="geometry" />
        </mxCell>
        <mxCell id="G43QjwHWIyFw_iOJCY6j-186" value="" style="shape=partialRectangle;collapsible=0;dropTarget=0;pointerEvents=0;fillColor=none;top=0;left=0;bottom=0;right=0;points=[[0,0.5],[1,0.5]];portConstraint=eastwest;" vertex="1" parent="G43QjwHWIyFw_iOJCY6j-179">
          <mxGeometry y="90" width="180" height="30" as="geometry" />
        </mxCell>
        <mxCell id="G43QjwHWIyFw_iOJCY6j-187" value="" style="shape=partialRectangle;connectable=0;fillColor=none;top=0;left=0;bottom=0;right=0;editable=1;overflow=hidden;" vertex="1" parent="G43QjwHWIyFw_iOJCY6j-186">
          <mxGeometry width="30" height="30" as="geometry" />
        </mxCell>
        <mxCell id="G43QjwHWIyFw_iOJCY6j-188" value="apellidos" style="shape=partialRectangle;connectable=0;fillColor=none;top=0;left=0;bottom=0;right=0;align=left;spacingLeft=6;overflow=hidden;" vertex="1" parent="G43QjwHWIyFw_iOJCY6j-186">
          <mxGeometry x="30" width="150" height="30" as="geometry" />
        </mxCell>
        <mxCell id="G43QjwHWIyFw_iOJCY6j-189" value="" style="shape=partialRectangle;collapsible=0;dropTarget=0;pointerEvents=0;fillColor=none;top=0;left=0;bottom=0;right=0;points=[[0,0.5],[1,0.5]];portConstraint=eastwest;" vertex="1" parent="G43QjwHWIyFw_iOJCY6j-179">
          <mxGeometry y="120" width="180" height="30" as="geometry" />
        </mxCell>
        <mxCell id="G43QjwHWIyFw_iOJCY6j-190" value="" style="shape=partialRectangle;connectable=0;fillColor=none;top=0;left=0;bottom=0;right=0;editable=1;overflow=hidden;" vertex="1" parent="G43QjwHWIyFw_iOJCY6j-189">
          <mxGeometry width="30" height="30" as="geometry" />
        </mxCell>
        <mxCell id="G43QjwHWIyFw_iOJCY6j-191" value="direccion" style="shape=partialRectangle;connectable=0;fillColor=none;top=0;left=0;bottom=0;right=0;align=left;spacingLeft=6;overflow=hidden;" vertex="1" parent="G43QjwHWIyFw_iOJCY6j-189">
          <mxGeometry x="30" width="150" height="30" as="geometry" />
        </mxCell>
        <mxCell id="G43QjwHWIyFw_iOJCY6j-192" value="Padre" style="shape=table;startSize=30;container=1;collapsible=1;childLayout=tableLayout;fixedRows=1;rowLines=0;fontStyle=1;align=center;resizeLast=1;" vertex="1" parent="WIyWlLk6GJQsqaUBKTNV-1">
          <mxGeometry x="690" y="520" width="180" height="250" as="geometry" />
        </mxCell>
        <mxCell id="G43QjwHWIyFw_iOJCY6j-193" value="" style="shape=partialRectangle;collapsible=0;dropTarget=0;pointerEvents=0;fillColor=none;top=0;left=0;bottom=1;right=0;points=[[0,0.5],[1,0.5]];portConstraint=eastwest;" vertex="1" parent="G43QjwHWIyFw_iOJCY6j-192">
          <mxGeometry y="30" width="180" height="30" as="geometry" />
        </mxCell>
        <mxCell id="G43QjwHWIyFw_iOJCY6j-194" value="PK" style="shape=partialRectangle;connectable=0;fillColor=none;top=0;left=0;bottom=0;right=0;fontStyle=1;overflow=hidden;" vertex="1" parent="G43QjwHWIyFw_iOJCY6j-193">
          <mxGeometry width="30" height="30" as="geometry" />
        </mxCell>
        <mxCell id="G43QjwHWIyFw_iOJCY6j-195" value="dni" style="shape=partialRectangle;connectable=0;fillColor=none;top=0;left=0;bottom=0;right=0;align=left;spacingLeft=6;fontStyle=5;overflow=hidden;" vertex="1" parent="G43QjwHWIyFw_iOJCY6j-193">
          <mxGeometry x="30" width="150" height="30" as="geometry" />
        </mxCell>
        <mxCell id="G43QjwHWIyFw_iOJCY6j-196" value="" style="shape=partialRectangle;collapsible=0;dropTarget=0;pointerEvents=0;fillColor=none;top=0;left=0;bottom=0;right=0;points=[[0,0.5],[1,0.5]];portConstraint=eastwest;" vertex="1" parent="G43QjwHWIyFw_iOJCY6j-192">
          <mxGeometry y="60" width="180" height="30" as="geometry" />
        </mxCell>
        <mxCell id="G43QjwHWIyFw_iOJCY6j-197" value="" style="shape=partialRectangle;connectable=0;fillColor=none;top=0;left=0;bottom=0;right=0;editable=1;overflow=hidden;" vertex="1" parent="G43QjwHWIyFw_iOJCY6j-196">
          <mxGeometry width="30" height="30" as="geometry" />
        </mxCell>
        <mxCell id="G43QjwHWIyFw_iOJCY6j-198" value="nombre" style="shape=partialRectangle;connectable=0;fillColor=none;top=0;left=0;bottom=0;right=0;align=left;spacingLeft=6;overflow=hidden;" vertex="1" parent="G43QjwHWIyFw_iOJCY6j-196">
          <mxGeometry x="30" width="150" height="30" as="geometry" />
        </mxCell>
        <mxCell id="G43QjwHWIyFw_iOJCY6j-199" value="" style="shape=partialRectangle;collapsible=0;dropTarget=0;pointerEvents=0;fillColor=none;top=0;left=0;bottom=0;right=0;points=[[0,0.5],[1,0.5]];portConstraint=eastwest;" vertex="1" parent="G43QjwHWIyFw_iOJCY6j-192">
          <mxGeometry y="90" width="180" height="30" as="geometry" />
        </mxCell>
        <mxCell id="G43QjwHWIyFw_iOJCY6j-200" value="" style="shape=partialRectangle;connectable=0;fillColor=none;top=0;left=0;bottom=0;right=0;editable=1;overflow=hidden;" vertex="1" parent="G43QjwHWIyFw_iOJCY6j-199">
          <mxGeometry width="30" height="30" as="geometry" />
        </mxCell>
        <mxCell id="G43QjwHWIyFw_iOJCY6j-201" value="apellidos" style="shape=partialRectangle;connectable=0;fillColor=none;top=0;left=0;bottom=0;right=0;align=left;spacingLeft=6;overflow=hidden;" vertex="1" parent="G43QjwHWIyFw_iOJCY6j-199">
          <mxGeometry x="30" width="150" height="30" as="geometry" />
        </mxCell>
        <mxCell id="G43QjwHWIyFw_iOJCY6j-202" value="" style="shape=partialRectangle;collapsible=0;dropTarget=0;pointerEvents=0;fillColor=none;top=0;left=0;bottom=0;right=0;points=[[0,0.5],[1,0.5]];portConstraint=eastwest;" vertex="1" parent="G43QjwHWIyFw_iOJCY6j-192">
          <mxGeometry y="120" width="180" height="30" as="geometry" />
        </mxCell>
        <mxCell id="G43QjwHWIyFw_iOJCY6j-203" value="" style="shape=partialRectangle;connectable=0;fillColor=none;top=0;left=0;bottom=0;right=0;editable=1;overflow=hidden;" vertex="1" parent="G43QjwHWIyFw_iOJCY6j-202">
          <mxGeometry width="30" height="30" as="geometry" />
        </mxCell>
        <mxCell id="G43QjwHWIyFw_iOJCY6j-204" value="direccion" style="shape=partialRectangle;connectable=0;fillColor=none;top=0;left=0;bottom=0;right=0;align=left;spacingLeft=6;overflow=hidden;" vertex="1" parent="G43QjwHWIyFw_iOJCY6j-202">
          <mxGeometry x="30" width="150" height="30" as="geometry" />
        </mxCell>
        <mxCell id="G43QjwHWIyFw_iOJCY6j-205" value="Alumno" style="shape=table;startSize=30;container=1;collapsible=1;childLayout=tableLayout;fixedRows=1;rowLines=0;fontStyle=1;align=center;resizeLast=1;" vertex="1" parent="WIyWlLk6GJQsqaUBKTNV-1">
          <mxGeometry x="400" y="919" width="180" height="250" as="geometry" />
        </mxCell>
        <mxCell id="G43QjwHWIyFw_iOJCY6j-206" value="" style="shape=partialRectangle;collapsible=0;dropTarget=0;pointerEvents=0;fillColor=none;top=0;left=0;bottom=1;right=0;points=[[0,0.5],[1,0.5]];portConstraint=eastwest;" vertex="1" parent="G43QjwHWIyFw_iOJCY6j-205">
          <mxGeometry y="30" width="180" height="30" as="geometry" />
        </mxCell>
        <mxCell id="G43QjwHWIyFw_iOJCY6j-207" value="PK" style="shape=partialRectangle;connectable=0;fillColor=none;top=0;left=0;bottom=0;right=0;fontStyle=1;overflow=hidden;" vertex="1" parent="G43QjwHWIyFw_iOJCY6j-206">
          <mxGeometry width="30" height="30" as="geometry" />
        </mxCell>
        <mxCell id="G43QjwHWIyFw_iOJCY6j-208" value="dni" style="shape=partialRectangle;connectable=0;fillColor=none;top=0;left=0;bottom=0;right=0;align=left;spacingLeft=6;fontStyle=5;overflow=hidden;" vertex="1" parent="G43QjwHWIyFw_iOJCY6j-206">
          <mxGeometry x="30" width="150" height="30" as="geometry" />
        </mxCell>
        <mxCell id="G43QjwHWIyFw_iOJCY6j-209" value="" style="shape=partialRectangle;collapsible=0;dropTarget=0;pointerEvents=0;fillColor=none;top=0;left=0;bottom=0;right=0;points=[[0,0.5],[1,0.5]];portConstraint=eastwest;" vertex="1" parent="G43QjwHWIyFw_iOJCY6j-205">
          <mxGeometry y="60" width="180" height="30" as="geometry" />
        </mxCell>
        <mxCell id="G43QjwHWIyFw_iOJCY6j-210" value="" style="shape=partialRectangle;connectable=0;fillColor=none;top=0;left=0;bottom=0;right=0;editable=1;overflow=hidden;" vertex="1" parent="G43QjwHWIyFw_iOJCY6j-209">
          <mxGeometry width="30" height="30" as="geometry" />
        </mxCell>
        <mxCell id="G43QjwHWIyFw_iOJCY6j-211" value="nombre" style="shape=partialRectangle;connectable=0;fillColor=none;top=0;left=0;bottom=0;right=0;align=left;spacingLeft=6;overflow=hidden;" vertex="1" parent="G43QjwHWIyFw_iOJCY6j-209">
          <mxGeometry x="30" width="150" height="30" as="geometry" />
        </mxCell>
        <mxCell id="G43QjwHWIyFw_iOJCY6j-212" value="" style="shape=partialRectangle;collapsible=0;dropTarget=0;pointerEvents=0;fillColor=none;top=0;left=0;bottom=0;right=0;points=[[0,0.5],[1,0.5]];portConstraint=eastwest;" vertex="1" parent="G43QjwHWIyFw_iOJCY6j-205">
          <mxGeometry y="90" width="180" height="30" as="geometry" />
        </mxCell>
        <mxCell id="G43QjwHWIyFw_iOJCY6j-213" value="" style="shape=partialRectangle;connectable=0;fillColor=none;top=0;left=0;bottom=0;right=0;editable=1;overflow=hidden;" vertex="1" parent="G43QjwHWIyFw_iOJCY6j-212">
          <mxGeometry width="30" height="30" as="geometry" />
        </mxCell>
        <mxCell id="G43QjwHWIyFw_iOJCY6j-214" value="apellidos" style="shape=partialRectangle;connectable=0;fillColor=none;top=0;left=0;bottom=0;right=0;align=left;spacingLeft=6;overflow=hidden;" vertex="1" parent="G43QjwHWIyFw_iOJCY6j-212">
          <mxGeometry x="30" width="150" height="30" as="geometry" />
        </mxCell>
        <mxCell id="G43QjwHWIyFw_iOJCY6j-215" value="" style="shape=partialRectangle;collapsible=0;dropTarget=0;pointerEvents=0;fillColor=none;top=0;left=0;bottom=0;right=0;points=[[0,0.5],[1,0.5]];portConstraint=eastwest;" vertex="1" parent="G43QjwHWIyFw_iOJCY6j-205">
          <mxGeometry y="120" width="180" height="30" as="geometry" />
        </mxCell>
        <mxCell id="G43QjwHWIyFw_iOJCY6j-216" value="" style="shape=partialRectangle;connectable=0;fillColor=none;top=0;left=0;bottom=0;right=0;editable=1;overflow=hidden;" vertex="1" parent="G43QjwHWIyFw_iOJCY6j-215">
          <mxGeometry width="30" height="30" as="geometry" />
        </mxCell>
        <mxCell id="G43QjwHWIyFw_iOJCY6j-217" value="edad" style="shape=partialRectangle;connectable=0;fillColor=none;top=0;left=0;bottom=0;right=0;align=left;spacingLeft=6;overflow=hidden;" vertex="1" parent="G43QjwHWIyFw_iOJCY6j-215">
          <mxGeometry x="30" width="150" height="30" as="geometry" />
        </mxCell>
        <mxCell id="G43QjwHWIyFw_iOJCY6j-218" value="Mensaje" style="shape=table;startSize=30;container=1;collapsible=1;childLayout=tableLayout;fixedRows=1;rowLines=0;fontStyle=1;align=center;resizeLast=1;" vertex="1" parent="WIyWlLk6GJQsqaUBKTNV-1">
          <mxGeometry x="555" y="40" width="180" height="250" as="geometry" />
        </mxCell>
        <mxCell id="G43QjwHWIyFw_iOJCY6j-219" value="" style="shape=partialRectangle;collapsible=0;dropTarget=0;pointerEvents=0;fillColor=none;top=0;left=0;bottom=1;right=0;points=[[0,0.5],[1,0.5]];portConstraint=eastwest;" vertex="1" parent="G43QjwHWIyFw_iOJCY6j-218">
          <mxGeometry y="30" width="180" height="30" as="geometry" />
        </mxCell>
        <mxCell id="G43QjwHWIyFw_iOJCY6j-220" value="PK" style="shape=partialRectangle;connectable=0;fillColor=none;top=0;left=0;bottom=0;right=0;fontStyle=1;overflow=hidden;" vertex="1" parent="G43QjwHWIyFw_iOJCY6j-219">
          <mxGeometry width="30" height="30" as="geometry" />
        </mxCell>
        <mxCell id="G43QjwHWIyFw_iOJCY6j-221" value="" style="shape=partialRectangle;connectable=0;fillColor=none;top=0;left=0;bottom=0;right=0;align=left;spacingLeft=6;fontStyle=5;overflow=hidden;" vertex="1" parent="G43QjwHWIyFw_iOJCY6j-219">
          <mxGeometry x="30" width="150" height="30" as="geometry" />
        </mxCell>
        <mxCell id="G43QjwHWIyFw_iOJCY6j-222" value="" style="shape=partialRectangle;collapsible=0;dropTarget=0;pointerEvents=0;fillColor=none;top=0;left=0;bottom=0;right=0;points=[[0,0.5],[1,0.5]];portConstraint=eastwest;" vertex="1" parent="G43QjwHWIyFw_iOJCY6j-218">
          <mxGeometry y="60" width="180" height="30" as="geometry" />
        </mxCell>
        <mxCell id="G43QjwHWIyFw_iOJCY6j-223" value="" style="shape=partialRectangle;connectable=0;fillColor=none;top=0;left=0;bottom=0;right=0;editable=1;overflow=hidden;" vertex="1" parent="G43QjwHWIyFw_iOJCY6j-222">
          <mxGeometry width="30" height="30" as="geometry" />
        </mxCell>
        <mxCell id="G43QjwHWIyFw_iOJCY6j-224" value="mensaje" style="shape=partialRectangle;connectable=0;fillColor=none;top=0;left=0;bottom=0;right=0;align=left;spacingLeft=6;overflow=hidden;" vertex="1" parent="G43QjwHWIyFw_iOJCY6j-222">
          <mxGeometry x="30" width="150" height="30" as="geometry" />
        </mxCell>
        <mxCell id="G43QjwHWIyFw_iOJCY6j-225" value="" style="shape=partialRectangle;collapsible=0;dropTarget=0;pointerEvents=0;fillColor=none;top=0;left=0;bottom=0;right=0;points=[[0,0.5],[1,0.5]];portConstraint=eastwest;" vertex="1" parent="G43QjwHWIyFw_iOJCY6j-218">
          <mxGeometry y="90" width="180" height="30" as="geometry" />
        </mxCell>
        <mxCell id="G43QjwHWIyFw_iOJCY6j-226" value="" style="shape=partialRectangle;connectable=0;fillColor=none;top=0;left=0;bottom=0;right=0;editable=1;overflow=hidden;" vertex="1" parent="G43QjwHWIyFw_iOJCY6j-225">
          <mxGeometry width="30" height="30" as="geometry" />
        </mxCell>
        <mxCell id="G43QjwHWIyFw_iOJCY6j-227" value="emisor" style="shape=partialRectangle;connectable=0;fillColor=none;top=0;left=0;bottom=0;right=0;align=left;spacingLeft=6;overflow=hidden;" vertex="1" parent="G43QjwHWIyFw_iOJCY6j-225">
          <mxGeometry x="30" width="150" height="30" as="geometry" />
        </mxCell>
        <mxCell id="G43QjwHWIyFw_iOJCY6j-228" value="" style="shape=partialRectangle;collapsible=0;dropTarget=0;pointerEvents=0;fillColor=none;top=0;left=0;bottom=0;right=0;points=[[0,0.5],[1,0.5]];portConstraint=eastwest;" vertex="1" parent="G43QjwHWIyFw_iOJCY6j-218">
          <mxGeometry y="120" width="180" height="30" as="geometry" />
        </mxCell>
        <mxCell id="G43QjwHWIyFw_iOJCY6j-229" value="" style="shape=partialRectangle;connectable=0;fillColor=none;top=0;left=0;bottom=0;right=0;editable=1;overflow=hidden;" vertex="1" parent="G43QjwHWIyFw_iOJCY6j-228">
          <mxGeometry width="30" height="30" as="geometry" />
        </mxCell>
        <mxCell id="G43QjwHWIyFw_iOJCY6j-230" value="receptor" style="shape=partialRectangle;connectable=0;fillColor=none;top=0;left=0;bottom=0;right=0;align=left;spacingLeft=6;overflow=hidden;" vertex="1" parent="G43QjwHWIyFw_iOJCY6j-228">
          <mxGeometry x="30" width="150" height="30" as="geometry" />
        </mxCell>
        <mxCell id="G43QjwHWIyFw_iOJCY6j-231" value="es" style="shape=rhombus;perimeter=rhombusPerimeter;whiteSpace=wrap;html=1;align=center;" vertex="1" parent="WIyWlLk6GJQsqaUBKTNV-1">
          <mxGeometry x="120" y="420" width="120" height="60" as="geometry" />
        </mxCell>
        <mxCell id="G43QjwHWIyFw_iOJCY6j-232" value="es" style="shape=rhombus;perimeter=rhombusPerimeter;whiteSpace=wrap;html=1;align=center;" vertex="1" parent="WIyWlLk6GJQsqaUBKTNV-1">
          <mxGeometry x="414" y="420" width="120" height="60" as="geometry" />
        </mxCell>
        <mxCell id="G43QjwHWIyFw_iOJCY6j-233" value="es" style="shape=rhombus;perimeter=rhombusPerimeter;whiteSpace=wrap;html=1;align=center;" vertex="1" parent="WIyWlLk6GJQsqaUBKTNV-1">
          <mxGeometry x="707" y="430" width="120" height="60" as="geometry" />
        </mxCell>
        <mxCell id="G43QjwHWIyFw_iOJCY6j-234" value="enseña" style="shape=rhombus;perimeter=rhombusPerimeter;whiteSpace=wrap;html=1;align=center;" vertex="1" parent="WIyWlLk6GJQsqaUBKTNV-1">
          <mxGeometry x="420" y="810" width="120" height="60" as="geometry" />
        </mxCell>
        <mxCell id="G43QjwHWIyFw_iOJCY6j-235" value="tiene" style="shape=rhombus;perimeter=rhombusPerimeter;whiteSpace=wrap;html=1;align=center;" vertex="1" parent="WIyWlLk6GJQsqaUBKTNV-1">
          <mxGeometry x="735" y="859" width="120" height="60" as="geometry" />
        </mxCell>
        <mxCell id="G43QjwHWIyFw_iOJCY6j-236" value="es alergico" style="shape=rhombus;perimeter=rhombusPerimeter;whiteSpace=wrap;html=1;align=center;" vertex="1" parent="WIyWlLk6GJQsqaUBKTNV-1">
          <mxGeometry x="435" y="1200" width="120" height="60" as="geometry" />
        </mxCell>
        <mxCell id="G43QjwHWIyFw_iOJCY6j-237" value="añade" style="shape=rhombus;perimeter=rhombusPerimeter;whiteSpace=wrap;html=1;align=center;" vertex="1" parent="WIyWlLk6GJQsqaUBKTNV-1">
          <mxGeometry x="720" y="1240" width="120" height="60" as="geometry" />
        </mxCell>
        <mxCell id="G43QjwHWIyFw_iOJCY6j-249" value="" style="edgeStyle=entityRelationEdgeStyle;fontSize=12;html=1;endArrow=ERoneToMany;exitX=0.5;exitY=1;exitDx=0;exitDy=0;entryX=1.002;entryY=0.064;entryDx=0;entryDy=0;entryPerimeter=0;" edge="1" parent="WIyWlLk6GJQsqaUBKTNV-1" source="G43QjwHWIyFw_iOJCY6j-235" target="G43QjwHWIyFw_iOJCY6j-205">
          <mxGeometry width="100" height="100" relative="1" as="geometry">
            <mxPoint x="680" y="1070" as="sourcePoint" />
            <mxPoint x="780" y="970" as="targetPoint" />
          </mxGeometry>
        </mxCell>
        <mxCell id="G43QjwHWIyFw_iOJCY6j-250" value="" style="edgeStyle=entityRelationEdgeStyle;fontSize=12;html=1;endArrow=ERzeroToMany;startArrow=ERmandOne;exitX=0.5;exitY=0;exitDx=0;exitDy=0;" edge="1" parent="WIyWlLk6GJQsqaUBKTNV-1" source="G43QjwHWIyFw_iOJCY6j-235">
          <mxGeometry width="100" height="100" relative="1" as="geometry">
            <mxPoint x="880" y="900" as="sourcePoint" />
            <mxPoint x="800" y="770" as="targetPoint" />
          </mxGeometry>
        </mxCell>
        <mxCell id="G43QjwHWIyFw_iOJCY6j-251" value="" style="edgeStyle=entityRelationEdgeStyle;fontSize=12;html=1;endArrow=ERoneToMany;exitX=0.5;exitY=1;exitDx=0;exitDy=0;entryX=0.5;entryY=0;entryDx=0;entryDy=0;" edge="1" parent="WIyWlLk6GJQsqaUBKTNV-1" source="G43QjwHWIyFw_iOJCY6j-234" target="G43QjwHWIyFw_iOJCY6j-205">
          <mxGeometry width="100" height="100" relative="1" as="geometry">
            <mxPoint x="310" y="920" as="sourcePoint" />
            <mxPoint x="410" y="820" as="targetPoint" />
          </mxGeometry>
        </mxCell>
      </root>
    </mxGraphModel>
  </diagram>
</mxfile>
